<svg height="20" viewBox="0 0 20 20" width="20" xmlns="http://www.w3.org/2000/svg"><path d="m100.562548 2016.99998h-13.1243767c-.7063909 0-1.2280178-.697-.96159-1.338 1.2361842-2.964 4.1403493-4.662 7.5232679-4.662 3.3839393 0 6.2881048 1.698 7.5242888 4.662.266428.641-.255199 1.338-.96159 1.338m-10.6458835-12c0-2.206 1.8323291-4 4.0831847-4 2.2518764 0 4.0831847 1.794 4.0831847 4s-1.8313083 4-4.0831847 4c-2.2508556 0-4.0831847-1.794-4.0831847-4m14.0390095 11.636c-.742118-3.359-3.063409-5.838-6.118652-6.963 1.6189828-1.277 2.563219-3.342 2.216149-5.603-.4021941-2.623-2.6295714-4.722-5.3183486-5.028-3.7116149-.423-6.8597503 2.407-6.8597503 5.958 0 1.89.8942175 3.574 2.288625 4.673-3.0562637 1.125-5.3765335 3.604-6.1196731 6.963-.2694902 1.221.7349733 2.364 2.0099477 2.364h15.8917553c1.275995 0 2.280458-1.143 2.009947-2.364" fill-rule="evenodd" transform="translate(-84 -1999)"/></svg>